<svg width="14" height="24" viewBox="0 0 14 24" fill="none" xmlns="http://www.w3.org/2000/svg">
<path d="M3.58524 23.2935C4.42899 23.2935 4.95131 22.8214 4.94127 21.9978L4.74038 10.7176C4.74038 10.3661 4.89105 10.1049 5.20243 9.96429C6.52832 9.38169 7.10086 8.769 7.03055 7.01116L6.74931 0.84375C6.72922 0.401786 6.46805 0.150669 6.05622 0.150669C5.66448 0.150669 5.42341 0.411831 5.42341 0.863837L5.49372 6.86049C5.49372 7.21205 5.27274 7.43304 4.94127 7.43304C4.59975 7.43304 4.35868 7.2221 4.35868 6.89062L4.25824 0.683036C4.24819 0.251116 3.99707 0 3.58524 0C3.17341 0 2.93234 0.251116 2.92229 0.683036L2.82184 6.89062C2.82184 7.2221 2.58077 7.43304 2.23926 7.43304C1.90779 7.43304 1.67676 7.21205 1.67676 6.86049L1.74707 0.863837C1.74707 0.411831 1.51605 0.150669 1.11426 0.150669C0.702428 0.150669 0.441267 0.401786 0.421178 0.84375L0.149972 7.01116C0.0696153 8.769 0.64216 9.38169 1.96805 9.96429C2.27944 10.1049 2.4301 10.3661 2.4301 10.7176L2.23926 21.9978C2.22922 22.8214 2.74149 23.2935 3.58524 23.2935ZM11.4401 14.5346L11.2292 21.9476C11.1991 22.8214 11.7314 23.2935 12.5651 23.2935C13.419 23.2935 13.9413 22.8616 13.9413 22.0581V0.753348C13.9413 0.241071 13.5897 0 13.2281 0C12.8464 0 12.5953 0.200893 12.2739 0.672991C10.6566 2.94308 9.59198 7.19196 9.59198 11.2098V11.702C9.59198 12.3951 9.84304 12.9074 10.3453 13.2388L10.9379 13.6407C11.2995 13.8917 11.4602 14.173 11.4401 14.5346Z" fill="#262626"/>
</svg>
