<svg width="23" height="21" viewBox="0 0 23 21" fill="none" xmlns="http://www.w3.org/2000/svg">
<path d="M21.35 5.06873L13.5437 1.49651C12.7304 1.12971 12.0685 0.954286 11.4067 0.970235C10.7528 0.954286 10.091 1.12971 9.26971 1.49651L1.47137 5.06873C0.961054 5.30001 0.713867 5.70663 0.713867 6.11332C0.713867 6.51995 0.961054 6.91868 1.47137 7.15791L4.75657 8.65697L9.80398 6.28874C9.75615 6.23294 9.74016 6.16912 9.74016 6.11332C9.74016 5.61096 10.5854 5.22822 11.4386 5.22822C12.2997 5.22822 13.129 5.61096 13.129 6.11332C13.129 6.6316 12.2997 7.02231 11.4386 7.02231C11.1755 7.02231 10.9123 6.98243 10.6811 6.91868L5.86492 9.17525L9.26971 10.7381C10.091 11.1128 10.7528 11.2723 11.4067 11.2644C12.0685 11.2723 12.7304 11.1128 13.5437 10.7381L21.35 7.15791C21.8603 6.91868 22.1075 6.51995 22.1075 6.11332C22.1075 5.70663 21.8603 5.30001 21.35 5.06873ZM5.83303 10.3554V15.2034C7.17262 16.0168 9.08633 16.5111 11.4067 16.5111C16.1112 16.5111 19.1412 14.4937 19.1412 12.1096V9.36658L13.9981 11.7189C13.0652 12.1495 12.22 12.3648 11.4067 12.3568C10.6013 12.3648 9.74812 12.1495 8.81518 11.7189L5.83303 10.3554ZM3.68011 9.36658V12.1096C3.68011 12.8033 4.0788 13.6644 4.79644 14.3981V9.88494L3.68011 9.36658ZM4.79644 17.0533H5.83303V15.2034C5.43434 14.9642 5.0835 14.6931 4.79644 14.3981V17.0533ZM4.16651 17.1092V19.2063C4.16651 19.8362 4.57317 20.2428 5.2031 20.2428H5.41839C6.04832 20.2428 6.45498 19.8362 6.45498 19.2063V17.1092C6.45498 16.4792 6.04832 16.0725 5.41839 16.0725H5.2031C4.57317 16.0725 4.16651 16.4792 4.16651 17.1092Z" fill="#262626"/>
</svg>
