<svg width="24" height="27" viewBox="0 0 24 27" fill="none" xmlns="http://www.w3.org/2000/svg">
<path d="M8.62218 25.335H14.7595C18.255 25.335 19.9827 23.5672 19.9525 20.0314C19.9123 15.9935 19.8923 13.0605 19.7918 10.8607C19.5006 4.39195 17.6825 2.49351 11.6958 2.49351C5.70923 2.49351 3.88111 4.39195 3.58981 10.8607C3.48937 13.0605 3.46928 15.9935 3.4291 20.0314C3.39896 23.5672 5.12664 25.335 8.62218 25.335ZM8.33088 21.3473C7.46705 21.3473 6.91459 20.7848 6.91459 19.9411V14.758C6.91459 13.9042 7.46705 13.3417 8.33088 13.3417H15.0608C15.9146 13.3417 16.4671 13.9042 16.4671 14.758V19.9411C16.4671 20.7848 15.9146 21.3473 15.0608 21.3473H8.33088ZM6.91459 17.209H16.4671V16.0136H6.91459V17.209ZM11.6958 0.143066C9.76727 0.143066 8.41124 1.44887 8.41124 3.22677H9.82754C9.82754 2.25244 10.5909 1.55936 11.6958 1.55936C12.7907 1.55936 13.5642 2.25244 13.5642 3.22677H14.9804C14.9804 1.44887 13.6144 0.143066 11.6958 0.143066Z" fill="#262626"/>
</svg>
