<svg width="24" height="14" viewBox="0 0 24 14" fill="none" xmlns="http://www.w3.org/2000/svg">
<path d="M2.11976 11.3352C2.83983 11.3352 3.39099 10.784 3.39099 10.0818V3.36115C3.39099 2.64997 2.83983 2.08992 2.11976 2.08992C1.40858 2.08992 0.857422 2.64997 0.857422 3.36115V10.0818C0.857422 10.784 1.40858 11.3352 2.11976 11.3352ZM6.34239 13.2999C7.52472 13.2999 8.35147 12.5087 8.35147 11.3886V2.06325C8.35147 0.934253 7.52472 0.143066 6.34239 0.143066C5.16894 0.143066 4.3422 0.934253 4.3422 2.06325V11.3886C4.3422 12.5087 5.16894 13.2999 6.34239 13.2999ZM9.38269 8.43719H14.9032V5.00575H9.38269V8.43719ZM17.9435 13.2999C19.1258 13.2999 19.9526 12.5087 19.9526 11.3886V2.06325C19.9526 0.934253 19.1258 0.143066 17.9435 0.143066C16.7701 0.143066 15.9433 0.934253 15.9433 2.06325V11.3886C15.9433 12.5087 16.7701 13.2999 17.9435 13.2999ZM22.0772 11.3352C22.7884 11.3352 23.3484 10.784 23.3484 10.0818V3.36115C23.3484 2.64997 22.7884 2.08992 22.0772 2.08992C21.3661 2.08992 20.8149 2.64997 20.8149 3.36115V10.0818C20.8149 10.784 21.3661 11.3352 22.0772 11.3352Z" fill="#262626"/>
</svg>
