<svg width="18" height="23" viewBox="0 0 18 23" fill="none" xmlns="http://www.w3.org/2000/svg">
<path d="M3.54255 22.3926H14.2099C16.2792 22.3926 17.3238 21.3379 17.3238 19.2486V4.01095C17.3238 1.91162 16.2892 0.856934 14.2099 0.856934H11.6587C11.3171 0.856934 11.0861 1.09801 11.0861 1.45961C11.0861 1.50984 11.0861 1.56006 11.0861 1.60024C11.0861 2.90604 10.2021 3.68952 8.87626 3.68952C7.55036 3.68952 6.66643 2.90604 6.66643 1.60024C6.66643 1.56006 6.66643 1.50984 6.66643 1.45961C6.66643 1.09801 6.43541 0.856934 6.09389 0.856934H3.54255C1.46331 0.856934 0.428711 1.91162 0.428711 4.01095V19.2486C0.428711 21.3379 1.47335 22.3926 3.54255 22.3926ZM5.06933 8.34019C4.70773 8.34019 4.44657 8.06898 4.44657 7.70738C4.44657 7.36586 4.70773 7.09465 5.06933 7.09465H12.6932C13.0448 7.09465 13.3059 7.36586 13.3059 7.70738C13.3059 8.06898 13.0448 8.34019 12.6932 8.34019H5.06933ZM5.06933 11.906C4.70773 11.906 4.44657 11.6348 4.44657 11.2933C4.44657 10.9417 4.70773 10.6705 5.06933 10.6705H8.67536C9.037 10.6705 9.29817 10.9417 9.29817 11.2933C9.29817 11.6348 9.037 11.906 8.67536 11.906H5.06933Z" fill="#262626"/>
</svg>
