<svg width="24" height="23" viewBox="0 0 24 23" fill="none" xmlns="http://www.w3.org/2000/svg">
<g clip-path="url(#clip0_141_1960)">
<path d="M5.73661 1.62019C5.24442 2.75523 5.01339 3.89027 5.01339 4.99518C5.01339 8.66148 7.60491 11.6649 11.6428 11.6649C15.6808 11.6649 18.2723 8.66148 18.2723 4.99518C18.2723 3.89027 18.0413 2.75523 17.5592 1.62019C17.3382 1.13804 16.7656 1.06773 16.3839 1.45947L14.1339 3.74965L12.2154 1.26862C11.904 0.866839 11.3817 0.866839 11.0804 1.26862L9.16183 3.74965L6.90178 1.45947C6.52009 1.06773 5.94754 1.13804 5.73661 1.62019ZM10.8393 21.8903C10.8393 22.3423 11.1909 22.6437 11.6428 22.6437C16.8359 22.6437 21.6071 19.4394 23.1741 14.9394C23.3951 14.3266 23.164 13.9349 22.5111 13.9349C17.3783 13.9349 13.6819 16.9483 12.1953 20.7552L12.4565 21.0968V10.6503H10.8393V21.8903ZM9.4632 18.0532C7.57478 15.6023 4.55133 13.9349 0.744419 13.9349C0.091517 13.9349 -0.13951 14.3266 0.0814722 14.9394C1.42745 18.8367 5.16406 21.7697 9.54351 22.4628C9.49329 22.2921 9.4632 22.0911 9.4632 21.8903V18.0532Z" fill="#262626"/>
</g>
<defs>
<clipPath id="clip0_141_1960">
<rect width="23.2556" height="21.7869" fill="white" transform="translate(0 0.856934)"/>
</clipPath>
</defs>
</svg>
