<svg width="10" height="12" viewBox="0 0 10 12" fill="none" xmlns="http://www.w3.org/2000/svg">
<path fill-rule="evenodd" clip-rule="evenodd" d="M5.0002 12C4.50314 12 4.1002 11.5971 4.1002 11.1L4.1002 3.1345L1.74895 5.7238C1.40443 6.08209 0.834693 6.09326 0.476398 5.74875C0.118104 5.40424 0.106932 4.8345 0.451447 4.4762L4.35145 0.276202C4.52113 0.0997319 4.75538 7.78183e-09 5.0002 0C5.24501 -7.78183e-09 5.47926 0.0997318 5.64895 0.276202L9.54895 4.4762C9.89346 4.8345 9.88229 5.40424 9.52399 5.74875C9.1657 6.09326 8.59596 6.08209 8.25145 5.7238L5.9002 3.1345V11.1C5.9002 11.5971 5.49725 12 5.0002 12Z" fill="white"/>
</svg>
