<svg width="15" height="18" viewBox="0 0 15 18" fill="none" xmlns="http://www.w3.org/2000/svg">
<path fill-rule="evenodd" clip-rule="evenodd" d="M7.11646 17.6259C7.14163 17.6405 7.16141 17.6517 7.17542 17.6596L7.19869 17.6726C7.38441 17.7745 7.6148 17.7738 7.8007 17.6729L7.82458 17.6596C7.83859 17.6517 7.85837 17.6405 7.88354 17.6259C7.93388 17.5967 8.00581 17.5542 8.09625 17.4985C8.27705 17.3872 8.53229 17.223 8.83718 17.0076C9.44591 16.5776 10.2581 15.9395 11.0721 15.1061C12.6922 13.4474 14.375 10.9551 14.375 7.75C14.375 3.95304 11.297 0.875 7.5 0.875C3.70304 0.875 0.625 3.95304 0.625 7.75C0.625 10.9551 2.30777 13.4474 3.92788 15.1061C4.74188 15.9395 5.55409 16.5776 6.16282 17.0076C6.46771 17.223 6.72295 17.3872 6.90375 17.4985C6.99419 17.5542 7.06612 17.5967 7.11646 17.6259ZM7.5 10.25C8.88071 10.25 10 9.13071 10 7.75C10 6.36929 8.88071 5.25 7.5 5.25C6.11929 5.25 5 6.36929 5 7.75C5 9.13071 6.11929 10.25 7.5 10.25Z" fill="#CBEA7B"/>
</svg>
