<svg width="19" height="18" viewBox="0 0 19 18" fill="none" xmlns="http://www.w3.org/2000/svg">
<path fill-rule="evenodd" clip-rule="evenodd" d="M0.75 2.75C0.75 1.36929 1.86929 0.25 3.25 0.25H4.39302C5.11 0.25 5.73498 0.737964 5.90887 1.43354L6.83037 5.11952C6.98284 5.72942 6.75495 6.37129 6.25202 6.74849L5.174 7.557C5.06206 7.64096 5.03772 7.7639 5.06917 7.84974C6.01542 10.4329 8.0671 12.4846 10.6503 13.4308C10.7361 13.4623 10.859 13.4379 10.943 13.326L11.7515 12.248C12.1287 11.7451 12.7706 11.5172 13.3805 11.6696L17.0665 12.5911C17.762 12.765 18.25 13.39 18.25 14.107V15.25C18.25 16.6307 17.1307 17.75 15.75 17.75H13.875C6.62626 17.75 0.75 11.8737 0.75 4.625V2.75Z" fill="#CBEA7B"/>
</svg>
