<svg width="22" height="21" viewBox="0 0 22 21" fill="none" xmlns="http://www.w3.org/2000/svg">
<path d="M0.714355 10.4599C0.714355 12.1374 1.12619 13.7144 1.86949 15.1206L3.60721 13.3829C3.83824 13.1519 4.1898 13.1519 4.42083 13.3829C4.65186 13.6139 4.6619 13.9655 4.42083 14.2065L2.47217 16.1552C2.72328 16.5068 2.9744 16.8482 3.26569 17.1596L17.6697 2.76569C17.3482 2.4744 16.9967 2.21324 16.6552 1.97217L14.6865 3.94092C14.4554 4.17195 14.0938 4.1619 13.8628 3.94092C13.6318 3.70989 13.6318 3.35833 13.8628 3.11726L15.6106 1.37954C14.2144 0.626186 12.6273 0.214355 10.9498 0.214355C5.35498 0.214355 0.714355 4.85498 0.714355 10.4599ZM13.1496 5.47774L11.7735 6.85386C11.5425 7.08489 11.1808 7.07485 10.9498 6.85386C10.7289 6.62284 10.7188 6.25119 10.9498 6.03021L12.336 4.65409C12.567 4.43311 12.9286 4.42306 13.1496 4.65409C13.3806 4.88512 13.3806 5.24672 13.1496 5.47774ZM10.2467 8.39069L8.86056 9.76678C8.63958 9.98776 8.27797 9.98776 8.04695 9.76678C7.81592 9.53578 7.81592 9.17416 8.04695 8.94316L9.4231 7.56703C9.6541 7.336 10.0157 7.336 10.2467 7.56703C10.4677 7.78802 10.4777 8.16971 10.2467 8.39069ZM7.33378 11.2936L5.96771 12.6697C5.72664 12.9008 5.37507 12.8907 5.14404 12.6697C4.91302 12.4387 4.91302 12.0872 5.14404 11.8561L6.51012 10.4699C6.74114 10.2389 7.10274 10.2489 7.33378 10.4699C7.55476 10.701 7.57485 11.0625 7.33378 11.2936ZM10.9599 20.7054C16.5648 20.7054 21.2054 16.0548 21.2054 10.4599C21.2054 8.79247 20.7936 7.20543 20.0503 5.80922L18.3125 7.5369C18.0715 7.77797 17.73 7.76793 17.4989 7.5369C17.278 7.30588 17.2579 6.95431 17.4989 6.71324L19.4476 4.77462C19.2065 4.42306 18.9554 4.08154 18.6641 3.77016L4.26012 18.1641C4.58154 18.4454 4.92306 18.7065 5.26458 18.9476L7.23333 16.9789C7.4744 16.7277 7.82597 16.7479 8.05699 16.9789C8.28802 17.2099 8.29806 17.5514 8.05699 17.7925L6.29917 19.5503C7.70543 20.2836 9.28243 20.7054 10.9599 20.7054ZM16.7758 9.06367L15.4096 10.4498C15.1786 10.6808 14.817 10.6708 14.586 10.4498C14.365 10.2088 14.355 9.85721 14.586 9.62621L15.9622 8.25007C16.1932 8.01904 16.5448 8.01904 16.7758 8.25007C17.0168 8.47105 17.0068 8.83267 16.7758 9.06367ZM13.8729 11.9767L12.4967 13.3427C12.2657 13.5838 11.9041 13.5838 11.6731 13.3427C11.452 13.1217 11.442 12.7501 11.6731 12.5191L13.0592 11.153C13.2802 10.932 13.6519 10.932 13.8729 11.153C14.1039 11.384 14.1039 11.7356 13.8729 11.9767ZM10.9699 14.8796L9.58381 16.2556C9.35273 16.4767 9.00119 16.4867 8.77016 16.2556C8.53914 16.0246 8.53914 15.663 8.77016 15.432L10.1463 14.0558C10.3773 13.8248 10.7389 13.8449 10.9699 14.0558C11.191 14.297 11.201 14.6586 10.9699 14.8796Z" fill="#CBEA7B"/>
</svg>
